<svg width="133" height="41" viewBox="0 0 133 41" fill="none" xmlns="http://www.w3.org/2000/svg">
<path fill-rule="evenodd" clip-rule="evenodd" d="M6.11567 26.0452H10.9391L16.4973 20.6693L17.1424 21.2768L18.4863 19.9722L19.1491 20.5441L17.7685 21.883L18.413 22.5082L19.7561 21.2057L20.4189 21.7762L19.0567 23.1164L19.6095 23.6521L12.7984 30.2786H0.997498V15.2928L4.99318 11.2742V7.21938L10.313 1.70053V6.02285L15.9092 0.449951L30.9119 15.2928V26.206L26.7886 30.2786H15.6695L20.0502 26.0452H25.7944V17.365L16.0932 7.96987L6.11567 17.365V26.0452ZM71.5202 13.239H60.6409C58.7075 13.239 56.5909 14.7393 56.3145 16.6501L56.0571 18.4897C55.9098 19.5966 57.2537 20.6686 58.3395 21.0264L65.2796 23.3661L64.7092 26.9202C64.6542 27.1528 64.4695 27.4921 64.2121 27.4921H61.5977C61.3403 27.4921 61.322 27.0269 61.3586 26.7772L61.7267 24.9376H54.6583L54.1612 27.0823C53.7374 28.9746 55.2104 30.4749 57.143 30.4749H67.4703C69.8823 30.4749 71.1332 29.5465 71.5752 27.67L72.5511 23.635C72.7901 22.6512 72.2021 21.7762 71.0782 21.3835L63.2186 18.7401L63.7524 16.6863C63.8081 16.4715 64.0471 16.2752 64.2678 16.2752H66.6608C66.8632 16.2752 67.1763 16.4359 67.1396 16.6323L66.7532 18.6689H73.7666L74.2454 16.6501C74.6868 14.7749 73.4536 13.239 71.5202 13.239ZM130.096 13.239H119.198C117.265 13.239 115.148 14.7393 114.892 16.6501L114.615 18.4897C114.467 19.5966 115.811 20.6686 116.897 21.0264L123.837 23.3661L123.265 26.9202C123.229 27.1528 123.026 27.4921 122.787 27.4921H120.155C119.898 27.4921 119.879 27.0269 119.935 26.7772L120.284 24.9376H113.216L112.719 27.0823C112.295 28.9746 113.768 30.4749 115.701 30.4749H126.046C128.458 30.4749 129.71 29.5465 130.151 27.67L131.145 23.635C131.365 22.6512 130.796 21.7762 129.654 21.3835L121.775 18.7401L122.328 16.6863C122.383 16.4715 122.622 16.2752 122.842 16.2752H125.236C125.42 16.2752 125.733 16.4359 125.696 16.6323L125.292 18.6689H132.342L132.821 16.6501C133.262 14.7749 132.029 13.239 130.096 13.239ZM52.983 13.239H42.4724C40.6681 13.239 38.0544 13.8643 37.668 15.7395L37.0785 18.5971L43.7239 18.7401L44.2576 16.9538C44.35 16.5071 44.9021 16.1507 45.3442 16.1507H48.1603C48.6207 16.1862 48.6023 16.5434 48.5107 16.9538L47.8662 19.026L38.8462 21.4369C37.6313 21.8125 35.7903 22.2948 35.6796 23.5091L34.7229 28.2248C34.6488 29.0827 35.4773 30.2252 36.3424 30.2252H44.111C44.6821 30.0651 45.2518 29.8325 45.5465 29.4569L45.3992 30.2252H51.2901L54.972 15.8832C55.4874 13.9355 54.1252 13.239 52.983 13.239ZM47.1294 23.0268L46.3383 26.063C46.2276 26.5282 45.8413 26.8312 45.1235 26.8312H42.4907C41.8646 26.8312 41.6256 26.7779 41.8096 25.9747L42.215 24.1522C42.3434 23.5816 42.9511 23.3128 43.5215 23.1527L46.375 22.3659C46.9087 22.2223 47.3135 22.2585 47.1294 23.0268ZM91.07 13.239H84.5346C84.1116 13.4354 83.8168 13.7035 83.5785 14.0066L83.6702 13.239H77.5585L70.9675 40.9961L78.2213 34.4942L79.3988 29.9392C79.5462 30.2252 79.8592 30.4749 80.467 30.4749H86.542C88.4739 30.4749 90.3706 28.9568 90.8676 27.0823L93.5914 16.6501C94.0708 14.7749 93.0216 13.239 91.07 13.239ZM86.855 17.2931L84.5177 26.3311C84.426 26.6876 84.0382 26.9927 83.6709 26.9927H81.1488C80.7815 26.9927 80.5601 26.6883 80.6517 26.3311L82.9898 17.2931C83.0821 16.936 83.4495 16.6323 83.8182 16.6323H86.3403C86.7077 16.6323 86.946 16.936 86.855 17.2931ZM110.252 13.239H99.9251C97.513 13.239 96.2072 14.1858 95.6537 16.061L93.1133 25.0635L92.5422 27.0823C91.9901 28.9568 93.1316 30.4749 95.0643 30.4749H105.832C107.766 30.4749 110.048 28.9746 110.527 27.0823L111.115 24.8138H104.286L103.789 26.8504C103.697 27.2068 103.328 27.4928 102.96 27.4928H100.419C100.051 27.4928 99.8306 27.2068 99.923 26.8504L100.88 22.9208H111.612L113.25 16.6508C113.75 14.7571 112.185 13.239 110.252 13.239ZM106.257 16.7931L105.411 20.33C105.318 20.6871 104.95 20.9731 104.582 20.9731H102.041C101.674 20.9731 101.452 20.6871 101.544 20.33L102.391 16.7931C102.483 16.4359 102.851 16.1322 103.219 16.1322H105.741C106.109 16.1322 106.349 16.4359 106.257 16.7931Z" fill="black"/>
</svg>
