<svg width="125" height="23" viewBox="0 0 125 23" fill="none" xmlns="http://www.w3.org/2000/svg">
<path fill-rule="evenodd" clip-rule="evenodd" d="M10.0618 0.470215H0.971191V21.373H10.0618C17.1626 21.373 21.6223 16.4466 21.6223 10.9216C21.6223 5.39662 17.334 0.470215 10.0618 0.470215ZM10.0618 17.7117H4.95065V4.1311H10.0618C14.6927 4.1311 17.6428 7.22745 17.6428 10.9217C17.6428 14.616 14.6927 17.7117 10.0618 17.7117Z" fill="black" />
<path fill-rule="evenodd" clip-rule="evenodd" d="M25.8542 13.9276H23.6995V10.8607H25.8542V3.8621H39.7062V6.92903H29.1878V10.8607H36.5164V13.9276H29.1878V18.3053H39.7062V21.3729H25.8542V13.9276ZM40.8223 0.470215H45.1106L50.3592 13.2517L55.6078 0.470215H59.8954L50.3592 21.806L40.8223 0.470215ZM61.3627 3.8621H64.697V21.3729H61.3627V3.8621ZM69.2892 3.8621H72.6235V18.3053H79.7223V14.1226H83.0552V21.3729H69.2892V3.8621ZM86.3232 3.8621H89.6554V18.3053H96.7549V14.1226H100.088V21.3729H86.3232V3.8621ZM104.248 13.9276H102.094V10.8607H104.248V3.8621H118.1V6.92903H107.583V10.8607H114.911V13.9276H107.583V18.3053H118.1V21.3729H104.248V13.9276ZM122.885 18.3642C121.774 18.3642 120.866 19.2289 120.866 20.2893C120.866 20.5449 120.919 20.7981 121.02 21.0338C121.122 21.2696 121.271 21.4834 121.459 21.6625C121.647 21.8416 121.87 21.9826 122.115 22.0771C122.36 22.1716 122.622 22.2179 122.885 22.213C123.148 22.2176 123.409 22.1711 123.652 22.0763C123.896 21.9815 124.118 21.8403 124.305 21.661C124.491 21.4817 124.639 21.2679 124.739 21.0323C124.839 20.7968 124.89 20.5441 124.888 20.2893C124.887 20.0352 124.834 19.7838 124.733 19.5494C124.632 19.315 124.484 19.1024 124.298 18.9235C124.112 18.7447 123.891 18.6032 123.649 18.5072C123.407 18.4112 123.147 18.3626 122.885 18.3642Z" fill="black" />
<path fill-rule="evenodd" clip-rule="evenodd" d="M122.885 21.9436C121.94 21.9607 121.163 21.2061 121.163 20.2894C121.163 19.3714 121.941 18.6353 122.885 18.6353C123.109 18.6345 123.332 18.6767 123.539 18.7595C123.746 18.8423 123.935 18.9641 124.093 19.1179C124.252 19.2716 124.377 19.4543 124.463 19.6553C124.548 19.8564 124.592 20.0719 124.592 20.2894C124.592 21.2061 123.831 21.9607 122.885 21.9436Z" fill="black" />
<path fill-rule="evenodd" clip-rule="evenodd" d="M123.776 21.0994L123.757 20.9926V20.8481C123.74 20.614 123.702 20.5422 123.591 20.3977C123.573 20.3628 123.536 20.3443 123.499 20.2909C123.72 20.1465 123.777 20.0205 123.777 19.8227C123.777 19.4633 123.499 19.2463 122.961 19.2463H121.997V21.3157H122.312V20.4333H122.868C123.351 20.4518 123.425 20.5052 123.442 20.9563C123.461 21.2075 123.48 21.2267 123.516 21.3157H123.831C123.794 21.2438 123.776 21.2075 123.776 21.1541V21.0994Z" fill="black" />
<path fill-rule="evenodd" clip-rule="evenodd" d="M122.867 20.1811H122.311V19.4985H122.905C123.312 19.4985 123.479 19.6052 123.479 19.8391C123.479 20.0915 123.275 20.1982 122.867 20.1811Z" fill="black" />
</svg>
