<svg width="133" height="26" viewBox="0 0 133 26" fill="none" xmlns="http://www.w3.org/2000/svg">
<path fill-rule="evenodd" clip-rule="evenodd" d="M59.9982 13.2852C59.346 13.2852 59.1204 13.4323 59.1204 13.8695C59.1204 14.2101 59.145 14.5023 60.0482 14.5023C60.1484 14.5023 65.6917 14.0644 72.3646 14.0644C78.8851 14.0644 84.53 14.5023 84.6301 14.5023C85.5319 14.5023 85.6328 14.2594 85.6328 13.8209C85.6328 13.4323 85.3324 13.2852 84.7803 13.2852C83.827 13.2852 79.7883 13.6266 72.3646 13.6266C65.0402 13.6266 60.9014 13.2852 59.9982 13.2852ZM59.9982 11.6057C59.346 11.6057 59.1204 11.8007 59.1204 12.2385C59.1204 12.5799 59.145 12.8228 60.0482 12.8228C60.1484 12.8228 65.6917 12.4335 72.3646 12.4335C78.8851 12.4335 84.53 12.8228 84.6301 12.8228C85.5319 12.8228 85.6328 12.6285 85.6328 12.19C85.6328 11.8007 85.3324 11.6057 84.7803 11.6057C83.827 11.6057 79.7883 11.9464 72.3646 11.9464C65.0402 11.9464 60.9014 11.6057 59.9982 11.6057ZM60.3148 14.9661C59.6879 14.9661 59.4116 15.1611 59.4116 15.5989C59.4116 15.9403 59.5124 16.1831 60.4149 16.1831C60.515 16.1831 66.1133 15.7939 72.335 15.7939C78.5552 15.7939 84.3446 16.1831 84.4454 16.1831C85.3486 16.1831 85.448 15.9882 85.448 15.5496C85.448 15.1611 85.1477 14.9654 84.5956 14.9654C83.7431 14.9654 79.2581 15.3547 72.335 15.3547C65.4118 15.356 61.1171 14.9661 60.3148 14.9661ZM60.209 9.90092C59.5568 9.90092 59.3058 10.0952 59.3058 10.533C59.3058 10.8744 59.4066 11.1658 60.3091 11.1658C60.4092 11.1658 66.1281 10.728 72.3498 10.728C78.57 10.728 84.2381 11.1658 84.3389 11.1658C85.2421 11.1658 85.343 10.923 85.343 10.4845C85.343 10.0952 85.0412 9.90023 84.4891 9.90023C83.6367 9.90023 79.2729 10.2888 72.3498 10.2888C65.4266 10.2895 61.0121 9.90092 60.209 9.90092ZM59.6886 16.7592C61.2187 22.1137 66.4863 25.667 72.4069 25.667C78.326 25.667 83.593 22.1144 85.1491 16.7592H59.6886ZM59.6886 9.37415H85.1491C83.593 4.0196 78.3253 0.466309 72.4069 0.466309C66.4863 0.466993 61.2187 4.02028 59.6886 9.37415ZM0.948486 1.48974V23.9779H3.70817V4.26451L11.7348 23.9779H15.2468L23.1733 4.26451V23.9779H26.0324V1.48974H20.9657L13.5913 20.3761L5.56394 1.48974H0.948486ZM123.178 1.48974H119.214L109.933 23.9779H113.093L117.709 12.8795H125.033L129.698 23.9779H132.86L123.178 1.48974ZM118.759 10.2957L121.217 4.16257L123.875 10.2957H118.759ZM37.607 1.48974V23.9779H40.4661V4.6052L52.2056 23.9779H56.4192V1.48974H53.51V20.8625L41.8713 1.48974H37.607ZM96.5848 1.48974V4.26451H104.109V23.9779H107.069V4.26451H114.595V1.48974H96.5848ZM88.2599 1.48974V23.9779H101.103V21.0574H91.2706V1.48974H88.2599ZM29.8377 1.44117V23.9779H32.8477V1.44117H29.8377Z" fill="black" />
</svg>
