<svg width="136" height="39" viewBox="0 0 136 39" fill="none" xmlns="http://www.w3.org/2000/svg">
<g clip-path="url(#clip0)">
<path d="M70.1015 37.2072C69.4686 37.5007 68.8007 37.7119 68.1141 37.8355C67.1826 38.0139 66.2357 38.0989 65.2873 38.0892C62.3851 38.0892 59.9357 37.4205 57.9392 36.0832C55.9845 34.7928 54.4368 32.9738 53.4765 30.838C52.0707 30.553 50.7297 30.0105 49.5213 29.2379C48.3253 28.4627 47.2932 27.4603 46.4837 26.2875C45.6122 25.0171 44.9602 23.6095 44.5549 22.1233C44.09 20.4116 43.864 18.6439 43.8834 16.8703C43.8505 14.8466 44.154 12.8314 44.7814 10.907C45.3183 9.28097 46.1879 7.78443 47.3349 6.51257C48.4181 5.32445 49.7517 4.3914 51.2393 3.78069C54.4862 2.5246 58.0852 2.5246 61.3322 3.78069C62.8215 4.38827 64.1557 5.32178 65.2366 6.51257C66.3744 7.7981 67.2367 9.30293 67.7705 10.9343C68.397 12.8443 68.7017 14.8449 68.6724 16.8547C68.6724 20.5388 67.8916 23.566 66.3298 25.9362C64.875 28.2253 62.6228 29.894 60.0086 30.6195C60.6296 31.5512 61.543 32.25 62.605 32.6059C63.6958 32.986 64.8428 33.1799 65.9979 33.1796C66.5532 33.1819 67.1074 33.1323 67.6534 33.0313C68.116 32.948 68.5716 32.8293 69.016 32.6762L70.1015 37.2072ZM50.189 16.8742C50.189 19.8038 50.7343 22.0778 51.8249 23.6961C52.3017 24.4406 52.9582 25.0532 53.734 25.4775C54.5098 25.9018 55.3799 26.1242 56.2642 26.1242C57.1486 26.1242 58.0187 25.9018 58.7945 25.4775C59.5703 25.0532 60.2268 24.4406 60.7036 23.6961C61.7916 22.0778 62.3356 19.8038 62.3356 16.8742C62.3356 14.1397 61.7903 12.0049 60.6997 10.4699C60.1988 9.75806 59.5341 9.17711 58.7614 8.77607C57.9888 8.37503 57.131 8.16567 56.2603 8.16567C55.3897 8.16567 54.5319 8.37503 53.7593 8.77607C52.9866 9.17711 52.3218 9.75806 51.821 10.4699C50.746 12.0023 50.2085 14.1358 50.2085 16.8703L50.189 16.8742ZM71.4329 3.34749H77.6291V18.6226C77.6291 21.3024 78.0339 23.1718 78.8434 24.2308C79.6529 25.2897 80.8242 25.8192 82.3574 25.8192C83.8931 25.8192 85.0787 25.2884 85.9143 24.2269C86.7498 23.1653 87.1676 21.2959 87.1676 18.6187V3.33968H93.114V17.9904C93.114 22.5669 92.203 25.9011 90.3809 27.993C88.5589 30.0848 85.8857 31.1255 82.3613 31.1151C78.8161 31.1151 76.1077 30.0744 74.2362 27.993C72.3647 25.9115 71.429 22.5773 71.429 17.9904V3.34749H71.4329ZM109.544 24.1371H101.216L99.5367 30.6273H93.2546L101.79 3.33578H109.208L117.759 30.6234H111.219L109.544 24.1371ZM108.283 19.3251L107.654 16.8157C107.264 15.4497 106.886 13.9992 106.522 12.4642C106.157 10.9291 105.794 9.44869 105.432 8.02291H105.264L104.242 12.4798C103.893 13.9992 103.523 15.4432 103.133 16.8118L102.465 19.3251H108.283ZM121.601 20.9096L113.347 3.34749H119.957L122.389 9.62301C122.78 10.6637 123.149 11.6615 123.498 12.6164C123.847 13.5712 124.219 14.5716 124.615 15.6175H124.783C125.173 14.5586 125.557 13.5465 125.934 12.5812C126.312 11.616 126.696 10.6182 127.086 9.58788L129.554 3.30846H136.004L127.766 20.9096V30.6195H121.604V20.9096H121.601Z" fill="black" />
<path d="M29.4254 0.00683594L37.57 17.2255L29.4254 34.4402H22.4951L30.6358 17.2255L22.4951 0.00683594H29.4254Z" fill="black" />
<path d="M22.4952 34.4402L14.3506 17.2255L22.4952 0.00683594H29.4255L21.2848 17.2255L29.4255 34.4402H22.4952Z" fill="black" />
<path d="M18.8288 7.75367L15.1665 0.00683594H8.23621L15.3656 15.0829L18.8288 7.75367ZM15.3656 19.3642L8.23621 34.4402H15.1665L18.8288 26.6934L15.3656 19.3642Z" fill="black" />
<path d="M8.23626 34.441L0.0916748 17.2262L8.23626 0.00756836H15.1666L7.02199 17.2262L15.1666 34.441H8.23626Z" fill="black" />
</g>
<defs>
<clipPath id="clip0">
<rect width="135.908" height="38.0919" fill="white" transform="translate(0.0916748)"/>
</clipPath>
</defs>
</svg>
