<svg width="125" height="34" viewBox="0 0 125 34" fill="none" xmlns="http://www.w3.org/2000/svg">
<path fill-rule="evenodd" clip-rule="evenodd" d="M36.936 20.7203C36.9416 20.7897 36.9416 20.8595 36.936 20.929C36.8788 21.7356 36.5608 22.6414 35.9813 23.6491C35.762 24.0274 35.2628 24.4721 35.1197 24.5138C35.0865 24.5227 34.4766 24.5282 33.2893 24.5282L24.3277 24.5549C20.674 24.5549 18.7914 24.5576 18.6758 24.5617C18.1195 24.5788 17.59 24.5337 17.0837 24.4174C16.0564 24.182 15.0947 23.6128 14.1957 22.7084L14.0505 22.5613C13.5308 22.0379 13.0309 21.4688 12.5515 20.8564C12.1168 20.3233 11.6751 19.7956 11.2266 19.2734C9.49918 17.2346 8.60867 16.1804 8.55085 16.1085C8.15998 15.6245 7.76157 15.1462 7.35574 14.6739C6.72963 13.9405 6.37497 13.515 6.28966 13.4001C5.86661 12.8233 6.04641 12.4518 6.82693 12.2863C7.67585 12.107 8.42041 11.8539 9.06274 11.531C11.0059 10.5527 12.0755 9.2323 12.2765 7.56506C12.4217 6.36713 12.1404 5.32861 11.4332 4.45224C10.8818 3.76878 9.95255 3.29673 8.64251 3.03676C7.54188 2.81783 5.71079 2.81647 4.95635 3.01213L4.70464 21.3572C4.68842 22.6872 5.11006 23.5287 5.66778 24.4776C5.60432 24.574 5.42241 24.613 5.12064 24.5994L0.225972 24.4618C0.499543 23.9138 0.667352 23.5362 0.728694 23.3248C0.849631 22.9262 0.954299 22.5232 1.04245 22.1166L0.923296 3.67369C0.903554 3.12843 0.603895 1.85458 0.284494 1.28059C0.187898 1.10545 0.130081 0.981615 0.113159 0.907044C0.243599 0.865996 0.930346 0.846841 2.1727 0.848893C5.76649 0.855734 7.80699 0.850264 8.2949 0.835213C9.16145 0.805795 9.97158 0.88652 10.726 1.07808C12.4422 1.50908 13.014 1.87578 13.7973 2.3793C15.1455 3.24542 16.0317 4.7642 16.1417 6.32198C16.2905 8.42365 15.3965 10.0799 13.4561 11.2957C12.8744 11.6623 11.4494 12.3752 10.1909 12.6496C10.1744 12.6674 10.1618 12.6883 10.1539 12.711C10.146 12.7337 10.143 12.7577 10.145 12.7816C11.9945 15.1925 13.8664 17.4125 15.7617 19.4423C16.3266 20.0532 16.9138 20.6442 17.5223 21.2142C18.5975 22.2042 19.5148 22.8671 20.2799 23.201C20.9744 23.5041 21.1563 23.448 21.5335 23.0245C21.8212 22.7009 21.946 22.1802 21.9065 21.4585C21.8867 21.0829 21.8783 20.671 21.8832 20.2195L21.6921 3.82899C21.6801 3.35146 21.5913 2.87872 21.4235 2.41009C21.2719 1.98045 21.0216 1.48856 20.6719 0.937829L33.6693 0.907728L33.6926 4.2169C33.6193 4.19774 33.5114 4.13616 33.3697 4.03491C33.2822 3.9706 33.1722 3.89672 33.039 3.81052L32.8712 3.70174C32.269 3.30289 31.7734 3.17838 31.1987 3.11954C31.021 3.10107 30.4161 3.09217 29.3853 3.09217C27.9067 3.09217 27.0627 3.10586 26.8547 3.13323C26.732 3.15033 26.6651 3.15853 26.6559 3.15922C25.9903 3.21121 25.563 3.36104 25.3748 3.6087C25.3155 3.68601 25.2916 3.8844 25.3007 4.20253L25.3938 10.4247L31.5971 10.5568C31.6288 10.9577 31.6457 11.8546 31.6457 13.2482C31.5738 13.2824 31.5188 13.2954 31.4829 13.2851L31.2925 13.229L31.1021 13.1736C30.0903 12.8794 29.3126 12.7029 28.7662 12.6468C27.6677 12.5353 26.7948 12.5729 26.1475 12.759C25.7562 12.8712 25.5214 12.9827 25.4439 13.0949L25.453 19.0962C25.4749 20.6006 25.4897 21.3627 25.4988 21.3798C25.5362 21.464 25.637 21.5331 25.7985 21.5933C26.42 21.8246 27.0664 21.9874 27.7255 22.0783C29.2449 22.2883 30.6241 22.3068 31.8615 22.133C33.1793 21.9483 34.2207 21.7308 34.9822 21.4756C35.7613 21.2149 36.3084 20.996 36.6236 20.8181L36.7949 20.7203C36.8217 20.7059 36.8683 20.7059 36.936 20.7203ZM99.8157 20.4378C99.8143 20.5062 99.81 20.5766 99.8044 20.6451C99.7353 21.399 99.2946 22.5333 99.1529 22.8288C98.9491 23.2509 98.3512 24.0958 97.9465 24.1772C97.8993 24.1854 96.487 24.1896 93.7104 24.1896H93.4967C92.6514 24.1896 92.1592 24.1943 92.0203 24.2039L91.8123 24.2183H91.5987C88.3616 24.2183 86.6138 24.221 86.3536 24.232C85.8361 24.2491 84.7961 24.26 83.2357 24.26H81.5421C80.4323 24.26 79.19 24.1745 77.8059 23.0655L77.6459 22.9369C77.1438 22.5333 76.4331 21.7917 75.5158 20.7094L68.5214 12.5545C68.2006 12.172 68.1343 11.7916 68.3233 11.414L75.0589 2.74464C75.599 2.03998 75.7464 1.32916 75.501 0.610814C75.9692 0.560872 79.931 0.57866 80.3181 0.590974C80.3886 0.593711 80.4598 0.593711 80.5303 0.590974C80.5393 0.644242 80.5354 0.698802 80.5191 0.750379C80.5134 0.766799 80.4323 0.877628 80.2751 1.08424C79.5651 2.01466 78.6492 3.14349 77.5281 4.4666L71.9136 11.1198L79.9902 20.4966C80.8913 21.3641 81.6169 21.9743 82.1703 22.3301C82.96 22.8391 83.4938 23.0908 83.7695 23.0813C84.017 23.0744 84.2807 22.7761 84.5599 22.1871C84.7206 21.8464 84.7968 21.3737 84.7883 20.7668L84.5817 3.97608C84.5606 2.82057 84.5514 2.70017 84.2482 1.94693C84.1537 1.71022 83.9204 1.28606 83.553 0.675124L96.3974 0.508876C96.5194 0.508876 96.5744 0.752428 96.5596 1.2409C96.5375 1.93203 96.5422 2.62373 96.5737 3.31452C96.5906 3.60528 96.5709 3.80162 96.5201 3.90151C96.4496 3.86251 96.341 3.78315 96.1937 3.66685C95.643 3.23448 95.0479 2.96219 94.4077 2.84999C94.1433 2.80347 93.379 2.78021 92.1134 2.78021L91.4908 2.79389C90.601 2.79389 89.9015 2.82194 89.3932 2.87804C88.5393 2.96972 88.129 3.23106 88.1607 3.65796L88.2446 10.0923C88.2926 10.1682 88.3384 10.2051 88.3849 10.2031L88.5943 10.1956L88.7995 10.2031H90.5058L90.7124 10.1887H91.7326C93.403 10.1887 94.297 10.1935 94.4169 10.2051C94.438 10.3057 94.4599 11.2033 94.486 12.8965C94.452 12.9345 94.4058 12.96 94.3548 12.969C94.3414 12.9704 94.278 12.954 94.1623 12.9177C93.262 12.6366 91.4372 12.0756 89.5934 12.3533C88.8404 12.4669 88.4075 12.6201 88.2989 12.8158L88.3758 21.0993C88.7502 21.4879 91.3117 22.1337 94.1377 21.8635C97.0518 21.5857 99.0662 20.8161 99.6944 20.383C99.7176 20.3824 99.7406 20.3871 99.7617 20.3966C99.7827 20.4061 99.8012 20.4202 99.8157 20.4378ZM119.366 0.458252L124.029 0.486986L123.917 0.664862C123.626 1.12529 123.406 1.63428 123.257 2.19527C123.187 2.46072 123.15 2.97656 123.147 3.74279L123.264 13.7284C123.286 14.6832 123.298 15.2783 123.302 15.5131L123.304 15.5989C123.366 20.6793 123.403 23.4527 123.413 23.9207C123.43 24.7027 123.105 24.951 122.44 24.6637C121.92 24.4393 121.384 24.1061 120.831 23.6641C119.461 22.5723 118.689 21.8827 117.771 20.8003L105.021 6.38766C104.749 6.36987 104.618 6.61137 104.625 7.1101C104.632 7.58287 104.638 7.95676 104.642 8.23156C104.647 8.55325 104.65 8.73917 104.65 8.78898C104.734 16.4472 104.784 20.6478 104.804 21.3908C104.823 22.0824 105.188 23.0984 105.469 23.6033C105.648 23.9255 105.745 24.1102 105.759 24.154C105.759 24.1629 105.755 24.1683 105.745 24.1683L101.225 24.2244C101.205 24.2244 101.182 24.2094 101.153 24.1827C101.148 24.1396 101.179 24.0548 101.25 23.9262L101.352 23.7414C101.599 23.2858 102.005 21.8573 102.042 21.5365C102.057 21.4085 102.044 20.1566 102.005 17.7806C101.983 16.5751 101.973 15.9498 101.973 15.9012C101.918 11.3907 101.884 8.88681 101.874 8.38807C101.872 8.28495 101.87 8.19267 101.868 8.1112C101.865 7.95485 101.863 7.83832 101.863 7.7614C101.835 5.25952 101.819 3.79273 101.812 3.36035C101.798 2.47645 101.236 1.30385 101.007 0.940569C100.878 0.73396 100.803 0.613553 100.783 0.577294L105.107 0.487669L119.699 17.3099C119.891 17.4406 120.568 17.5165 120.558 16.6866L120.381 3.66685L120.378 3.45682C120.372 2.99229 120.286 2.51408 120.119 2.02082C119.944 1.50703 119.734 1.06713 119.485 0.700433L119.366 0.528716C119.36 0.519138 119.36 0.495879 119.366 0.458252ZM60.2656 8.53311C60.6224 9.62225 60.8375 10.8496 60.9094 12.2165C61.1167 16.1653 59.2545 20.056 55.3646 22.2685C53.3488 23.4165 50.9875 24.1109 48.2821 24.3503L37.8335 24.401C37.83 24.3572 37.9005 24.2244 38.0443 24.0042C38.312 23.5974 38.5344 23.1642 38.7078 22.7118C38.8728 22.2829 38.9687 21.9517 38.992 21.715C39.0061 21.5762 38.9898 19.8364 38.944 16.4923L38.7903 4.16901C38.7804 3.15033 38.7262 2.315 37.8737 1.02061C37.7644 0.854366 37.7369 0.759272 37.7898 0.733959L48.2574 0.69428C49.3799 0.69428 50.5764 0.844787 51.847 1.14581C53.1091 1.44546 54.2252 1.87715 55.1947 2.43882C57.5983 3.83241 58.921 5.3553 59.911 7.55479C59.9942 7.73951 60.1119 8.06448 60.2656 8.53311ZM54.5834 18.9179C55.354 18.1798 55.9562 17.2583 56.3891 16.1534C56.9398 14.7489 57.0899 13.2336 56.9433 11.7422C56.6718 8.98384 55.9752 7.69701 55.2165 6.64346C54.7131 5.94292 53.8078 5.16576 53.762 5.13019C51.9979 3.78042 49.8022 3.06688 47.1709 2.99231C44.3492 2.91159 42.7423 3.03815 42.3495 3.37405C42.4807 15.3092 42.5505 21.2918 42.5625 21.3213C42.5956 21.3832 42.6453 21.4355 42.7063 21.4725C42.8373 21.5316 42.9699 21.5873 43.104 21.6394C44.6841 22.2913 46.7302 22.3221 49.2438 21.7317C51.3633 21.2337 53.1429 20.2958 54.5834 18.9179Z" fill="black" />
<path fill-rule="evenodd" clip-rule="evenodd" d="M68.2203 24.3229L68.2132 24.2682L68.0919 24.1013C68.0577 24.0407 68.026 23.9789 67.9967 23.9159L67.9044 23.7278C67.903 23.7236 67.8684 23.6634 67.8064 23.5444C67.432 22.8644 67.236 22.064 67.2226 21.1431L67.0667 2.79218C67.1648 2.19152 67.408 1.57581 67.7937 0.946413C67.9037 0.76512 67.9284 0.674132 67.8642 0.670711L67.5504 0.657715H62.746L62.3907 0.699444C62.3871 0.732966 62.4266 0.813014 62.5077 0.938208C63.1014 1.84194 63.4074 2.79492 63.4222 3.79442L63.6344 21.6514C63.5851 22.1563 63.1373 23.6073 62.8553 24.0862L62.7467 24.2696C62.7436 24.2877 62.7436 24.3062 62.7467 24.3243C62.7686 24.3633 62.8306 24.3804 62.9329 24.3804H66.1318C67.3911 24.379 68.0863 24.3619 68.2203 24.3229ZM36.5791 32.1425H38.9644L39.6032 33.7755H40.3985L38.1338 28.2033H37.3907L35.2134 33.7755H35.9742L36.5791 32.1425ZM111.234 33.7755H111.96V31.4693L114.276 28.2033H113.412L111.615 30.7783L109.921 28.2033H109.006L111.234 31.5186V33.7755ZM123.146 32.661C123.077 32.6946 123.008 32.7281 122.922 32.7609C122.455 32.9963 122.006 33.1153 121.591 33.1153C120.571 33.1153 119.74 32.4243 119.534 31.381C119.499 31.181 119.482 30.9785 119.483 30.7756C119.483 30.1182 119.69 29.4621 120.191 28.9572C120.587 28.5536 121.158 28.4188 121.66 28.4188C122.144 28.4188 122.558 28.5536 122.714 28.6541L122.904 28.7732C122.933 28.7965 122.971 28.8084 123.008 28.8067C123.215 28.8067 123.231 28.5714 123.231 28.5207C123.231 28.4366 123.249 28.3511 123.249 28.3018L123.267 28.2512L123.231 28.1841C123.076 27.9639 122.748 27.8475 122.316 27.7634C122.094 27.7173 121.868 27.6944 121.641 27.695C120.396 27.695 119.412 28.3511 118.997 29.3116C118.789 29.8342 118.686 30.3391 118.686 30.8426C118.686 31.6349 118.945 32.3751 119.36 32.8629C119.879 33.5189 120.692 33.8384 121.745 33.8384C122.298 33.8384 122.903 33.6537 123.18 33.4526C123.249 33.402 123.37 33.3 123.37 33.1481V32.5598L123.146 32.661ZM46.5941 33.7755H47.3725L49.4292 28.2033H48.5993L46.9734 32.7999L45.3489 28.2033H44.5021L46.5941 33.7755ZM99.9115 33.7755H100.638V29.4505L103.732 33.7755H104.405V28.2033H103.645V32.5618L100.569 28.2033H99.9115V33.7755ZM63.2777 33.8384H64.0032V29.5127L67.0794 33.8384H67.7711V28.2662H67.0111V32.6262L63.9341 28.2662H63.2777V33.8384ZM73.6127 28.2594V32.0125C73.6127 32.6528 73.8553 33.1748 74.2529 33.4929C74.5808 33.7468 75.1181 33.9657 75.7914 33.9657C76.242 33.9657 76.5183 33.8973 76.7595 33.8131C77.3983 33.5443 77.7452 33.1906 77.8996 32.5345C77.9701 32.3156 77.9863 32.1137 77.9863 31.8928V28.2587H77.2608V31.8928C77.2608 32.3327 77.1564 32.6008 77.0366 32.7691C76.9153 32.9539 76.7419 33.0886 76.5353 33.1899C76.3287 33.2911 76.0847 33.3075 75.826 33.3075C75.2555 33.3075 74.9101 33.1564 74.7204 32.971C74.4778 32.7691 74.3404 32.5003 74.3404 32.0624V28.258H73.6127V28.2594ZM11.075 33.7755H11.8181V28.8785H13.6499V28.2033H9.24177V28.8607H11.0919L11.075 33.7755ZM83.4923 33.7755H87.5021V33.1351H84.234V31.2497H87.1566V30.6271H84.234V28.8607H87.4323L87.4139 28.2033H83.5085L83.4923 33.7755ZM54.1194 33.8384H58.1299V33.1995H54.8625V31.314H57.7837V30.6915H54.8625V28.925H58.0594L58.0431 28.2662H54.1363L54.1194 33.8384ZM18.6616 33.7755H19.4055V31.2004H22.3266V33.7755H23.0352V28.2033H22.3266V30.5779H19.4055V28.2033H18.6786L18.6616 33.7755ZM0.410645 32.4339C0.410645 32.9552 0.704663 33.4444 1.24052 33.7303C1.46474 33.8651 1.81093 33.967 2.31224 33.967C3.45377 33.967 4.24839 33.1919 4.24839 32.0802C4.24839 31.4926 4.00585 30.9542 3.67657 30.6682C3.38397 30.3973 2.89887 30.2126 2.36371 30.2126C1.98368 30.2126 1.63748 30.2981 1.32654 30.4828L1.58672 28.8833H3.972V28.243H1.03252L0.565762 31.34L1.06778 31.3906H1.15309L1.18905 31.3236C1.3188 31.1753 1.48035 31.0563 1.66242 30.9749C1.84448 30.8935 2.04268 30.8516 2.24315 30.8522C2.64011 30.8522 3.00463 31.0048 3.15834 31.1717C3.34801 31.34 3.52146 31.6766 3.52146 32.0645C3.52146 32.8889 2.9863 33.3445 2.34679 33.3445C1.44782 33.3445 1.17143 32.7876 1.15309 32.4175L1.11925 32.2841H0.410645V32.4339Z" fill="black" />
<path fill-rule="evenodd" clip-rule="evenodd" d="M36.7837 31.5549L37.6989 29.1121L38.6684 31.5549H36.7837Z" fill="black" />
</svg>
