<svg width="326" height="41" viewBox="0 0 326 41" fill="none" xmlns="http://www.w3.org/2000/svg">
<path d="M18.9375 27.6094L19.6172 25.9219H25.3828L26.0625 27.6094H18.9375ZM17.625 30.9844L18.2812 29.2969H26.6953L27.4219 30.9844H17.625ZM16.3125 34.3594L16.9688 32.6719H28.0312L28.7344 34.3594H16.3125ZM2.60156 39H0.773438L16.125 0.1875H17.9531L33.2812 39H31.4766L17.0391 2.46094L2.60156 39ZM17.25 6.46875L18.2109 8.625L6.21094 39H4.40625L17.25 6.46875ZM19.125 10.9219L20.0156 13.2422L9.86719 39H8.03906L19.125 10.9219ZM20.9062 15.5625L21.7969 17.9297L13.4766 39H11.6719L20.9062 15.5625ZM44.1797 39H42.3516L27.0234 0.1875H28.8281L44.1797 39ZM25.1953 0.1875L40.5469 39H38.7422L23.3906 0.1875H25.1953ZM21.5625 0.1875L36.9141 39H35.0859L19.7578 0.1875H21.5625ZM59.8828 22.875H70.0547C71.3984 22.875 72.5391 22.4531 73.4766 21.6094C74.4141 20.7656 74.8828 19.5781 74.8828 18.0469C74.8828 16.9219 74.3906 15.9141 73.4062 15.0234C72.4375 14.1328 71.3203 13.6875 70.0547 13.6875H55.5703V39H53.8828V12H70.0547C71.7891 12 73.3047 12.6094 74.6016 13.8281C75.9141 15.0469 76.5703 16.4531 76.5703 18.0469C76.5703 20.0312 75.9375 21.6172 74.6719 22.8047C73.4062 23.9766 71.8672 24.5625 70.0547 24.5625H59.8828V22.875ZM59.8828 26.25H70.0547C72.3047 26.25 74.2344 25.4844 75.8438 23.9531C77.4531 22.4219 78.2578 20.4531 78.2578 18.0469C78.2578 16 77.4375 14.2031 75.7969 12.6562C74.1562 11.0938 72.2422 10.3125 70.0547 10.3125H52.1953V39H50.5078V8.625H70.0547C72.7109 8.625 75.0234 9.57031 76.9922 11.4609C78.9609 13.3359 79.9453 15.5312 79.9453 18.0469C79.9453 20.8594 78.9688 23.2109 77.0156 25.1016C75.0781 26.9922 72.7578 27.9375 70.0547 27.9375H59.8828V26.25ZM59.8828 29.625H70.0547C72.1328 29.625 74.0547 29.125 75.8203 28.125C77.5859 27.125 78.9922 25.7344 80.0391 23.9531C81.1016 22.1719 81.6328 20.2031 81.6328 18.0469C81.6328 16.0938 81.1094 14.2656 80.0625 12.5625C79.0156 10.8438 77.5938 9.47656 75.7969 8.46094C74.0156 7.44531 72.1016 6.9375 70.0547 6.9375H48.8203V39H47.1328V5.25H70.0547C71.8203 5.25 73.5156 5.60156 75.1406 6.30469C76.7812 6.99219 78.1953 7.91406 79.3828 9.07031C80.5703 10.2109 81.5234 11.5703 82.2422 13.1484C82.9609 14.7266 83.3203 16.3594 83.3203 18.0469C83.3203 20.7812 82.6953 23.1719 81.4453 25.2188C80.1953 27.25 78.5156 28.7969 76.4062 29.8594L79.9453 39H78.1406L74.7891 30.5391C74.3672 30.6797 73.875 30.8203 73.3125 30.9609L76.4766 39H74.6719L71.5781 31.2422C71.0938 31.2891 70.5859 31.3125 70.0547 31.3125L73.0312 39H71.25L68.2969 31.3125H66.7734L69.6094 39H67.8281L64.9688 31.3125H59.8828V29.625ZM58.9453 39H57.2578V15.375H70.0547C70.9297 15.375 71.6719 15.6406 72.2812 16.1719C72.8906 16.6875 73.1953 17.3125 73.1953 18.0469C73.1953 20.1406 72.1484 21.1875 70.0547 21.1875H59.8828V19.5H70.0547C71.0234 19.5 71.5078 19.0156 71.5078 18.0469C71.5078 17.7812 71.3594 17.5547 71.0625 17.3672C70.7812 17.1641 70.4453 17.0625 70.0547 17.0625H58.9453V39ZM108.633 17.9062V39H106.945V17.9062C106.945 17.4531 106.867 17.0703 106.711 16.7578C106.57 16.4297 106.383 16.1797 106.148 16.0078C105.914 15.8359 105.602 15.7031 105.211 15.6094C104.836 15.5 104.469 15.4375 104.109 15.4219C103.75 15.3906 103.305 15.375 102.773 15.375C102.242 15.375 101.797 15.3906 101.438 15.4219C101.078 15.4375 100.703 15.5 100.312 15.6094C99.9375 15.7031 99.6328 15.8359 99.3984 16.0078C99.1641 16.1797 98.9688 16.4297 98.8125 16.7578C98.6719 17.0703 98.6016 17.4531 98.6016 17.9062V39H96.9141V17.9062C96.9141 15.0938 98.8672 13.6875 102.773 13.6875C106.68 13.6875 108.633 15.0938 108.633 17.9062ZM112.008 17.9062V39H110.32V17.9062C110.32 15.9219 109.617 14.4453 108.211 13.4766C106.82 12.4922 105.008 12 102.773 12C100.539 12 98.7188 12.4922 97.3125 13.4766C95.9219 14.4453 95.2266 15.9219 95.2266 17.9062V39H93.5391V17.9062C93.5391 16.2656 93.9609 14.8594 94.8047 13.6875C95.6484 12.5156 96.75 11.6641 98.1094 11.1328C99.4844 10.5859 101.039 10.3125 102.773 10.3125C104.508 10.3125 106.055 10.5859 107.414 11.1328C108.789 11.6641 109.898 12.5156 110.742 13.6875C111.586 14.8594 112.008 16.2656 112.008 17.9062ZM115.383 17.9062V39H113.695V17.9062C113.695 16.4375 113.406 15.1094 112.828 13.9219C112.266 12.7344 111.484 11.7578 110.484 10.9922C109.484 10.2266 108.328 9.64062 107.016 9.23438C105.703 8.82812 104.289 8.625 102.773 8.625C101.258 8.625 99.8438 8.82812 98.5312 9.23438C97.2188 9.64062 96.0625 10.2266 95.0625 10.9922C94.0625 11.7578 93.2734 12.7344 92.6953 13.9219C92.1328 15.1094 91.8516 16.4375 91.8516 17.9062V39H90.1641V17.9062C90.1641 16.2031 90.4922 14.6562 91.1484 13.2656C91.8203 11.875 92.7266 10.7266 93.8672 9.82031C95.0078 8.89844 96.3438 8.1875 97.875 7.6875C99.4062 7.1875 101.039 6.9375 102.773 6.9375C104.508 6.9375 106.141 7.1875 107.672 7.6875C109.203 8.1875 110.539 8.89844 111.68 9.82031C112.82 10.7266 113.719 11.875 114.375 13.2656C115.047 14.6562 115.383 16.2031 115.383 17.9062ZM118.758 39H117.07V17.9062C117.07 16.2031 116.688 14.5703 115.922 13.0078C115.172 11.4453 114.156 10.1016 112.875 8.97656C111.594 7.83594 110.07 6.92969 108.305 6.25781C106.539 5.58594 104.695 5.25 102.773 5.25C100.133 5.25 97.7344 5.75 95.5781 6.75C93.4375 7.73438 91.7188 9.20312 90.4219 11.1562C89.125 13.0938 88.4766 15.3438 88.4766 17.9062V39H86.7891V17.9062C86.7891 15.75 87.2109 13.7656 88.0547 11.9531C88.8984 10.1406 90.0391 8.625 91.4766 7.40625C92.9297 6.1875 94.625 5.24219 96.5625 4.57031C98.5156 3.89844 100.586 3.5625 102.773 3.5625C106.648 3.5625 110.008 4.53906 112.852 6.49219C115.695 4.53906 119.055 3.5625 122.93 3.5625C125.117 3.5625 127.18 3.89844 129.117 4.57031C131.07 5.24219 132.766 6.1875 134.203 7.40625C135.656 8.625 136.805 10.1406 137.648 11.9531C138.492 13.7656 138.914 15.75 138.914 17.9062V39H137.227V17.9062C137.227 15.3594 136.578 13.1172 135.281 11.1797C133.984 9.22656 132.258 7.75 130.102 6.75C127.961 5.75 125.57 5.25 122.93 5.25C119.617 5.25 116.727 6.03125 114.258 7.59375C114.617 7.90625 115.016 8.3125 115.453 8.8125C117.594 7.5625 120.086 6.9375 122.93 6.9375C124.664 6.9375 126.297 7.1875 127.828 7.6875C129.359 8.1875 130.695 8.89844 131.836 9.82031C132.977 10.7266 133.875 11.875 134.531 13.2656C135.203 14.6562 135.539 16.2031 135.539 17.9062V39H133.852V17.9062C133.852 16.4375 133.562 15.1094 132.984 13.9219C132.422 12.7344 131.641 11.7578 130.641 10.9922C129.641 10.2266 128.484 9.64062 127.172 9.23438C125.859 8.82812 124.445 8.625 122.93 8.625C120.445 8.625 118.297 9.13281 116.484 10.1484C116.766 10.5859 117.047 11.0703 117.328 11.6016C118.859 10.7422 120.727 10.3125 122.93 10.3125C124.664 10.3125 126.211 10.5859 127.57 11.1328C128.945 11.6641 130.055 12.5156 130.898 13.6875C131.742 14.8594 132.164 16.2656 132.164 17.9062V39H130.477V17.9062C130.477 15.9219 129.773 14.4453 128.367 13.4766C126.977 12.4922 125.164 12 122.93 12C120.898 12 119.25 12.375 117.984 13.125C118.188 13.7188 118.344 14.2812 118.453 14.8125C119.438 14.0625 120.93 13.6875 122.93 13.6875C126.836 13.6875 128.789 15.0938 128.789 17.9062V39H127.102V17.9062C127.102 17.4531 127.023 17.0703 126.867 16.7578C126.727 16.4297 126.539 16.1797 126.305 16.0078C126.07 15.8359 125.758 15.7031 125.367 15.6094C124.992 15.5 124.625 15.4375 124.266 15.4219C123.906 15.3906 123.461 15.375 122.93 15.375C122.398 15.375 121.953 15.3906 121.594 15.4219C121.234 15.4375 120.859 15.5 120.469 15.6094C120.094 15.7031 119.789 15.8359 119.555 16.0078C119.32 16.1797 119.125 16.4297 118.969 16.7578C118.828 17.0703 118.758 17.4531 118.758 17.9062V39ZM167.086 22.3594C167.086 20.3594 166.469 18.8125 165.234 17.7188C164 16.625 162.367 16.0781 160.336 16.0781C158.617 16.0781 157.141 16.6719 155.906 17.8594C154.672 19.0469 154.055 20.4688 154.055 22.125C154.055 23.0625 154.18 23.9062 154.43 24.6562C154.68 25.3906 155.016 26.0078 155.438 26.5078C155.875 26.9922 156.391 27.3984 156.984 27.7266C157.578 28.0391 158.195 28.2656 158.836 28.4062C159.492 28.5469 160.188 28.6172 160.922 28.6172C162.703 28.6172 164.328 28.1797 165.797 27.3047V28.9922C164.281 29.7891 162.648 30.1875 160.898 30.1875C159.773 30.1875 158.711 30.0391 157.711 29.7422C156.727 29.4297 155.828 28.9688 155.016 28.3594C154.203 27.7344 153.555 26.8906 153.07 25.8281C152.602 24.75 152.367 23.5156 152.367 22.125C152.367 19.9688 153.125 18.1406 154.641 16.6406C156.156 15.1406 158.055 14.3906 160.336 14.3906C162.852 14.3906 164.883 15.1016 166.43 16.5234C167.992 17.9297 168.773 19.875 168.773 22.3594V39H167.086V22.3594ZM172.148 22.3594V39H170.461V22.3594C170.461 19.4062 169.516 17.0625 167.625 15.3281C165.734 13.5781 163.305 12.7031 160.336 12.7031C157.586 12.7031 155.289 13.6172 153.445 15.4453C151.602 17.2734 150.68 19.5 150.68 22.125C150.68 23.7188 150.953 25.1484 151.5 26.4141C152.062 27.6797 152.82 28.6953 153.773 29.4609C154.727 30.2266 155.789 30.8125 156.961 31.2188C158.148 31.6094 159.398 31.8047 160.711 31.8047C162.492 31.8047 164.188 31.3906 165.797 30.5625V32.3438C164.109 33.0469 162.406 33.3984 160.688 33.3984C159.141 33.3984 157.672 33.1641 156.281 32.6953C154.891 32.2109 153.648 31.5156 152.555 30.6094C151.461 29.6875 150.594 28.5 149.953 27.0469C149.312 25.5781 148.992 23.9375 148.992 22.125C148.992 19.0469 150.078 16.4297 152.25 14.2734C154.438 12.1016 157.133 11.0156 160.336 11.0156C162.586 11.0156 164.602 11.4766 166.383 12.3984C168.164 13.3047 169.57 14.625 170.602 16.3594C171.633 18.0938 172.148 20.0938 172.148 22.3594ZM175.523 22.3594V39H173.836V22.3594C173.836 19.7812 173.242 17.5 172.055 15.5156C170.883 13.5156 169.273 11.9844 167.227 10.9219C165.18 9.85938 162.883 9.32812 160.336 9.32812C157.914 9.32812 155.703 9.90625 153.703 11.0625C151.703 12.2031 150.133 13.75 148.992 15.7031C147.867 17.6562 147.305 19.7969 147.305 22.125C147.305 24.125 147.672 25.9531 148.406 27.6094C149.141 29.25 150.125 30.6016 151.359 31.6641C152.609 32.7266 154.023 33.5547 155.602 34.1484C157.195 34.7266 158.859 35.0156 160.594 35.0156C162.359 35.0156 164.094 34.6484 165.797 33.9141V35.625C164.016 36.2969 162.266 36.6328 160.547 36.6328C157.844 36.6328 155.359 36.0234 153.094 34.8047C150.828 33.5859 149.016 31.8594 147.656 29.625C146.297 27.3906 145.617 24.8906 145.617 22.125C145.617 20.1562 145.992 18.2812 146.742 16.5C147.508 14.7188 148.539 13.1797 149.836 11.8828C151.133 10.5859 152.695 9.55469 154.523 8.78906C156.352 8.02344 158.289 7.64062 160.336 7.64062C163.195 7.64062 165.773 8.25 168.07 9.46875C170.383 10.6875 172.203 12.4219 173.531 14.6719C174.859 16.9219 175.523 19.4844 175.523 22.3594ZM178.898 22.3594V39H177.211V22.3594C177.211 19.1719 176.469 16.3281 174.984 13.8281C173.5 11.3125 171.477 9.375 168.914 8.01562C166.352 6.64062 163.492 5.95312 160.336 5.95312C157.305 5.95312 154.531 6.67969 152.016 8.13281C149.5 9.58594 147.523 11.5547 146.086 14.0391C144.648 16.5078 143.93 19.2031 143.93 22.125C143.93 24.0469 144.234 25.875 144.844 27.6094C145.469 29.3281 146.312 30.8359 147.375 32.1328C148.453 33.4141 149.688 34.5234 151.078 35.4609C152.484 36.3984 153.992 37.1094 155.602 37.5938C157.227 38.0781 158.875 38.3203 160.547 38.3203C162.391 38.3203 164.141 37.9688 165.797 37.2656V39C164.062 39.6094 162.281 39.9141 160.453 39.9141C158.562 39.9141 156.719 39.6484 154.922 39.1172C153.141 38.5859 151.484 37.8047 149.953 36.7734C148.438 35.7266 147.102 34.5 145.945 33.0938C144.789 31.6719 143.883 30.0156 143.227 28.125C142.57 26.2344 142.242 24.2344 142.242 22.125C142.242 19.7031 142.695 17.3984 143.602 15.2109C144.523 13.0078 145.773 11.1094 147.352 9.51562C148.945 7.90625 150.867 6.63281 153.117 5.69531C155.383 4.74219 157.789 4.26562 160.336 4.26562C162.93 4.26562 165.367 4.70312 167.648 5.57812C169.93 6.45312 171.898 7.67188 173.555 9.23438C175.211 10.7812 176.516 12.6875 177.469 14.9531C178.422 17.2188 178.898 19.6875 178.898 22.3594ZM189.047 14.6016H190.734V39H189.047V14.6016ZM182.297 6.9375V5.25H207.609V6.9375H182.297ZM182.297 10.3125V8.625H207.609V10.3125H182.297ZM182.297 13.6875V12H207.609V13.6875H182.297ZM199.172 14.6016H200.859V39H199.172V14.6016ZM195.797 14.6016H197.484V39H195.797V14.6016ZM192.422 14.6016H194.109V39H192.422V14.6016ZM233.484 24.0469V5.25H235.172V24.0469C235.172 25.8281 234.484 27.3594 233.109 28.6406C231.75 29.9219 230.109 30.5625 228.188 30.5625C226.266 30.5625 224.617 29.9219 223.242 28.6406C221.883 27.3594 221.203 25.8281 221.203 24.0469V5.25H222.891V24.0469C222.891 25.375 223.406 26.5156 224.438 27.4688C225.484 28.4062 226.734 28.875 228.188 28.875C229.641 28.875 230.883 28.4062 231.914 27.4688C232.961 26.5156 233.484 25.375 233.484 24.0469ZM236.859 24.0469V5.25H238.547V24.0469C238.547 26.7812 237.531 29.1172 235.5 31.0547C233.469 32.9766 231.031 33.9375 228.188 33.9375C225.344 33.9375 222.906 32.9766 220.875 31.0547C218.844 29.1172 217.828 26.7812 217.828 24.0469V5.25H219.516V24.0469C219.516 26.3125 220.359 28.25 222.047 29.8594C223.75 31.4531 225.797 32.25 228.188 32.25C230.562 32.25 232.602 31.4531 234.305 29.8594C236.008 28.25 236.859 26.3125 236.859 24.0469ZM240.234 24.0469V5.25H241.922V24.0469C241.922 26.4375 241.305 28.6562 240.07 30.7031C238.836 32.7344 237.164 34.3438 235.055 35.5312C232.945 36.7188 230.656 37.3125 228.188 37.3125C225.719 37.3125 223.43 36.7188 221.32 35.5312C219.211 34.3438 217.539 32.7344 216.305 30.7031C215.07 28.6562 214.453 26.4375 214.453 24.0469V5.25H216.141V24.0469C216.141 26.125 216.68 28.0547 217.758 29.8359C218.836 31.6172 220.297 33.0312 222.141 34.0781C224 35.1094 226.016 35.625 228.188 35.625C230.359 35.625 232.367 35.1094 234.211 34.0781C236.07 33.0312 237.539 31.6172 238.617 29.8359C239.695 28.0547 240.234 26.125 240.234 24.0469ZM243.609 24.0469V5.25H245.297V24.0469C245.297 26.2969 244.844 28.4531 243.938 30.5156C243.031 32.5625 241.812 34.3281 240.281 35.8125C238.75 37.2969 236.93 38.4766 234.82 39.3516C232.711 40.2422 230.5 40.6875 228.188 40.6875C225.875 40.6875 223.664 40.2422 221.555 39.3516C219.445 38.4766 217.625 37.2969 216.094 35.8125C214.562 34.3281 213.344 32.5625 212.438 30.5156C211.531 28.4531 211.078 26.2969 211.078 24.0469V5.25H212.766V24.0469C212.766 26.7344 213.453 29.2266 214.828 31.5234C216.219 33.8203 218.094 35.6406 220.453 36.9844C222.828 38.3281 225.406 39 228.188 39C230.969 39 233.539 38.3281 235.898 36.9844C238.273 35.6406 240.148 33.8203 241.523 31.5234C242.914 29.2266 243.609 26.7344 243.609 24.0469ZM262.289 22.875H272.461C273.805 22.875 274.945 22.4531 275.883 21.6094C276.82 20.7656 277.289 19.5781 277.289 18.0469C277.289 16.9219 276.797 15.9141 275.812 15.0234C274.844 14.1328 273.727 13.6875 272.461 13.6875H257.977V39H256.289V12H272.461C274.195 12 275.711 12.6094 277.008 13.8281C278.32 15.0469 278.977 16.4531 278.977 18.0469C278.977 20.0312 278.344 21.6172 277.078 22.8047C275.812 23.9766 274.273 24.5625 272.461 24.5625H262.289V22.875ZM262.289 26.25H272.461C274.711 26.25 276.641 25.4844 278.25 23.9531C279.859 22.4219 280.664 20.4531 280.664 18.0469C280.664 16 279.844 14.2031 278.203 12.6562C276.562 11.0938 274.648 10.3125 272.461 10.3125H254.602V39H252.914V8.625H272.461C275.117 8.625 277.43 9.57031 279.398 11.4609C281.367 13.3359 282.352 15.5312 282.352 18.0469C282.352 20.8594 281.375 23.2109 279.422 25.1016C277.484 26.9922 275.164 27.9375 272.461 27.9375H262.289V26.25ZM262.289 29.625H272.461C274.539 29.625 276.461 29.125 278.227 28.125C279.992 27.125 281.398 25.7344 282.445 23.9531C283.508 22.1719 284.039 20.2031 284.039 18.0469C284.039 16.0938 283.516 14.2656 282.469 12.5625C281.422 10.8438 280 9.47656 278.203 8.46094C276.422 7.44531 274.508 6.9375 272.461 6.9375H251.227V39H249.539V5.25H272.461C274.227 5.25 275.922 5.60156 277.547 6.30469C279.188 6.99219 280.602 7.91406 281.789 9.07031C282.977 10.2109 283.93 11.5703 284.648 13.1484C285.367 14.7266 285.727 16.3594 285.727 18.0469C285.727 20.7812 285.102 23.1719 283.852 25.2188C282.602 27.25 280.922 28.7969 278.812 29.8594L282.352 39H280.547L277.195 30.5391C276.773 30.6797 276.281 30.8203 275.719 30.9609L278.883 39H277.078L273.984 31.2422C273.5 31.2891 272.992 31.3125 272.461 31.3125L275.438 39H273.656L270.703 31.3125H269.18L272.016 39H270.234L267.375 31.3125H262.289V29.625ZM261.352 39H259.664V15.375H272.461C273.336 15.375 274.078 15.6406 274.688 16.1719C275.297 16.6875 275.602 17.3125 275.602 18.0469C275.602 20.1406 274.555 21.1875 272.461 21.1875H262.289V19.5H272.461C273.43 19.5 273.914 19.0156 273.914 18.0469C273.914 17.7812 273.766 17.5547 273.469 17.3672C273.188 17.1641 272.852 17.0625 272.461 17.0625H261.352V39ZM313.43 22.3594C313.43 20.3594 312.812 18.8125 311.578 17.7188C310.344 16.625 308.711 16.0781 306.68 16.0781C304.961 16.0781 303.484 16.6719 302.25 17.8594C301.016 19.0469 300.398 20.4688 300.398 22.125C300.398 23.0625 300.523 23.9062 300.773 24.6562C301.023 25.3906 301.359 26.0078 301.781 26.5078C302.219 26.9922 302.734 27.3984 303.328 27.7266C303.922 28.0391 304.539 28.2656 305.18 28.4062C305.836 28.5469 306.531 28.6172 307.266 28.6172C309.047 28.6172 310.672 28.1797 312.141 27.3047V28.9922C310.625 29.7891 308.992 30.1875 307.242 30.1875C306.117 30.1875 305.055 30.0391 304.055 29.7422C303.07 29.4297 302.172 28.9688 301.359 28.3594C300.547 27.7344 299.898 26.8906 299.414 25.8281C298.945 24.75 298.711 23.5156 298.711 22.125C298.711 19.9688 299.469 18.1406 300.984 16.6406C302.5 15.1406 304.398 14.3906 306.68 14.3906C309.195 14.3906 311.227 15.1016 312.773 16.5234C314.336 17.9297 315.117 19.875 315.117 22.3594V39H313.43V22.3594ZM318.492 22.3594V39H316.805V22.3594C316.805 19.4062 315.859 17.0625 313.969 15.3281C312.078 13.5781 309.648 12.7031 306.68 12.7031C303.93 12.7031 301.633 13.6172 299.789 15.4453C297.945 17.2734 297.023 19.5 297.023 22.125C297.023 23.7188 297.297 25.1484 297.844 26.4141C298.406 27.6797 299.164 28.6953 300.117 29.4609C301.07 30.2266 302.133 30.8125 303.305 31.2188C304.492 31.6094 305.742 31.8047 307.055 31.8047C308.836 31.8047 310.531 31.3906 312.141 30.5625V32.3438C310.453 33.0469 308.75 33.3984 307.031 33.3984C305.484 33.3984 304.016 33.1641 302.625 32.6953C301.234 32.2109 299.992 31.5156 298.898 30.6094C297.805 29.6875 296.938 28.5 296.297 27.0469C295.656 25.5781 295.336 23.9375 295.336 22.125C295.336 19.0469 296.422 16.4297 298.594 14.2734C300.781 12.1016 303.477 11.0156 306.68 11.0156C308.93 11.0156 310.945 11.4766 312.727 12.3984C314.508 13.3047 315.914 14.625 316.945 16.3594C317.977 18.0938 318.492 20.0938 318.492 22.3594ZM321.867 22.3594V39H320.18V22.3594C320.18 19.7812 319.586 17.5 318.398 15.5156C317.227 13.5156 315.617 11.9844 313.57 10.9219C311.523 9.85938 309.227 9.32812 306.68 9.32812C304.258 9.32812 302.047 9.90625 300.047 11.0625C298.047 12.2031 296.477 13.75 295.336 15.7031C294.211 17.6562 293.648 19.7969 293.648 22.125C293.648 24.125 294.016 25.9531 294.75 27.6094C295.484 29.25 296.469 30.6016 297.703 31.6641C298.953 32.7266 300.367 33.5547 301.945 34.1484C303.539 34.7266 305.203 35.0156 306.938 35.0156C308.703 35.0156 310.438 34.6484 312.141 33.9141V35.625C310.359 36.2969 308.609 36.6328 306.891 36.6328C304.188 36.6328 301.703 36.0234 299.438 34.8047C297.172 33.5859 295.359 31.8594 294 29.625C292.641 27.3906 291.961 24.8906 291.961 22.125C291.961 20.1562 292.336 18.2812 293.086 16.5C293.852 14.7188 294.883 13.1797 296.18 11.8828C297.477 10.5859 299.039 9.55469 300.867 8.78906C302.695 8.02344 304.633 7.64062 306.68 7.64062C309.539 7.64062 312.117 8.25 314.414 9.46875C316.727 10.6875 318.547 12.4219 319.875 14.6719C321.203 16.9219 321.867 19.4844 321.867 22.3594ZM325.242 22.3594V39H323.555V22.3594C323.555 19.1719 322.812 16.3281 321.328 13.8281C319.844 11.3125 317.82 9.375 315.258 8.01562C312.695 6.64062 309.836 5.95312 306.68 5.95312C303.648 5.95312 300.875 6.67969 298.359 8.13281C295.844 9.58594 293.867 11.5547 292.43 14.0391C290.992 16.5078 290.273 19.2031 290.273 22.125C290.273 24.0469 290.578 25.875 291.188 27.6094C291.812 29.3281 292.656 30.8359 293.719 32.1328C294.797 33.4141 296.031 34.5234 297.422 35.4609C298.828 36.3984 300.336 37.1094 301.945 37.5938C303.57 38.0781 305.219 38.3203 306.891 38.3203C308.734 38.3203 310.484 37.9688 312.141 37.2656V39C310.406 39.6094 308.625 39.9141 306.797 39.9141C304.906 39.9141 303.062 39.6484 301.266 39.1172C299.484 38.5859 297.828 37.8047 296.297 36.7734C294.781 35.7266 293.445 34.5 292.289 33.0938C291.133 31.6719 290.227 30.0156 289.57 28.125C288.914 26.2344 288.586 24.2344 288.586 22.125C288.586 19.7031 289.039 17.3984 289.945 15.2109C290.867 13.0078 292.117 11.1094 293.695 9.51562C295.289 7.90625 297.211 6.63281 299.461 5.69531C301.727 4.74219 304.133 4.26562 306.68 4.26562C309.273 4.26562 311.711 4.70312 313.992 5.57812C316.273 6.45312 318.242 7.67188 319.898 9.23438C321.555 10.7812 322.859 12.6875 323.812 14.9531C324.766 17.2188 325.242 19.6875 325.242 22.3594Z" fill="#000"/>
</svg>
