<svg width="155" height="41" viewBox="0 0 155 41" fill="none" xmlns="http://www.w3.org/2000/svg">
    <path d="M19.9609 32V20.3516H6.50781L0.273438 14.1172V7.10938L6.50781 0.898438H10.0234V11.9375H24.3203L30.3438 18.1719V25.7891L24.1328 32H19.9609ZM11.6641 6.5V0.898438H24.1094L29.5 6.3125V9.61719H19.9609V6.5H11.6641ZM0.273438 22.6719H10.6328V26.375H18.3203V32H5.5L0.273438 25.7891V22.6719ZM51.4844 32V13.3203H36.7422V10.2266L39.8594 7.10938H55.3984L61.6094 13.3203V32H51.4844ZM49.8438 17.5156V21.8281H44.5V26.1875H49.8438V28.9297L46.75 32H38.8281L34.6562 27.8984V21.6641L38.8281 17.5156H49.8438ZM82.7266 13.3203H78.3203V10.6016L81.7891 7.10938H88.0703L93.1094 12.9219V19.3672H82.7266V13.3203ZM66.2969 32V7.10938H76.6562V32H66.2969ZM112.703 32V13.3203H97.9609V10.2266L101.078 7.10938H116.617L122.828 13.3203V32H112.703ZM111.062 17.5156V21.8281H105.719V26.1875H111.062V28.9297L107.969 32H100.047L95.875 27.8984V21.6641L100.047 17.5156H111.062ZM141.391 40.6719H131.453L144.062 7.10938H154.023L141.391 40.6719ZM124.75 7.10938H135.086L138.578 17.2344L133.938 29.9141L124.75 7.10938Z"
          fill="#000"/>
</svg>
