<svg width="105" height="36" viewBox="0 0 105 36" fill="none" xmlns="http://www.w3.org/2000/svg">
    <path d="M11.4766 2.02344C10.3516 2.02344 9.35938 2.15625 8.5 2.42188C7.65625 2.6875 6.94531 3.0625 6.36719 3.54688C5.78906 4.03125 5.35156 4.61719 5.05469 5.30469C4.77344 5.97656 4.63281 6.71875 4.63281 7.53125C4.63281 8.10938 4.71094 8.67969 4.86719 9.24219C5.02344 9.80469 5.35938 10.3828 5.875 10.9766C6.39062 11.5547 7.13281 12.1562 8.10156 12.7812C9.08594 13.4062 10.4062 14.0781 12.0625 14.7969C13.9688 15.6719 15.5781 16.4922 16.8906 17.2578C18.2188 18.0234 19.2969 18.8359 20.125 19.6953C20.9531 20.5547 21.5469 21.5234 21.9062 22.6016C22.2812 23.6641 22.4688 24.9375 22.4688 26.4219C22.4688 27.5469 22.2422 28.6719 21.7891 29.7969C21.3359 30.9219 20.6484 31.9297 19.7266 32.8203C18.8203 33.7109 17.6719 34.4375 16.2812 35C14.9062 35.5469 13.2891 35.8203 11.4297 35.8203C9.36719 35.8203 7.63281 35.625 6.22656 35.2344C4.82031 34.8594 3.6875 34.3672 2.82812 33.7578C1.98438 33.1484 1.375 32.4609 1 31.6953C0.625 30.9141 0.4375 30.1328 0.4375 29.3516C0.4375 28.8359 0.515625 28.3594 0.671875 27.9219C0.828125 27.4688 1.05469 27.0781 1.35156 26.75C1.66406 26.4062 2.03906 26.1406 2.47656 25.9531C2.92969 25.75 3.4375 25.6484 4 25.6484C4.51562 25.6484 4.98438 25.7422 5.40625 25.9297C5.82812 26.1016 6.17969 26.3438 6.46094 26.6562C6.75781 26.9531 6.98438 27.3125 7.14062 27.7344C7.3125 28.1406 7.39844 28.5859 7.39844 29.0703C7.39844 30.1797 7.07812 31.0156 6.4375 31.5781C5.79688 32.1406 4.96875 32.4219 3.95312 32.4219V32.5156C4.0625 32.6406 4.27344 32.8125 4.58594 33.0312C4.91406 33.25 5.35938 33.4688 5.92188 33.6875C6.5 33.9062 7.20312 34.1016 8.03125 34.2734C8.875 34.4297 9.86719 34.5078 11.0078 34.5078C11.9453 34.5078 12.875 34.3828 13.7969 34.1328C14.7344 33.8828 15.5625 33.5234 16.2812 33.0547C17.0156 32.5859 17.6094 32.0156 18.0625 31.3438C18.5156 30.6719 18.7422 29.9141 18.7422 29.0703C18.7422 28.3516 18.6094 27.6797 18.3438 27.0547C18.0781 26.4297 17.5781 25.7969 16.8438 25.1562C16.1094 24.5 15.0859 23.8047 13.7734 23.0703C12.4766 22.3203 10.7812 21.4766 8.6875 20.5391C7.14062 19.8828 5.86719 19.1641 4.86719 18.3828C3.88281 17.5859 3.10156 16.75 2.52344 15.875C1.96094 14.9844 1.57031 14.0625 1.35156 13.1094C1.13281 12.1406 1.02344 11.1484 1.02344 10.1328C1.02344 8.85156 1.25781 7.64062 1.72656 6.5C2.19531 5.35937 2.875 4.36719 3.76562 3.52344C4.65625 2.66406 5.75 1.98437 7.04688 1.48438C8.35938 0.984375 9.85156 0.734375 11.5234 0.734375C13.1328 0.734375 14.5312 0.921875 15.7188 1.29688C16.9219 1.67188 17.9141 2.17187 18.6953 2.79688C19.4766 3.40625 20.0625 4.125 20.4531 4.95312C20.8438 5.76563 21.0391 6.61719 21.0391 7.50781C21.0391 7.97656 20.9609 8.42969 20.8047 8.86719C20.6484 9.28906 20.4219 9.66406 20.125 9.99219C19.8281 10.3047 19.4609 10.5625 19.0234 10.7656C18.5859 10.9531 18.0859 11.0469 17.5234 11.0469C17.0078 11.0469 16.5391 10.9609 16.1172 10.7891C15.6953 10.6172 15.3281 10.3828 15.0156 10.0859C14.7188 9.78906 14.4844 9.4375 14.3125 9.03125C14.1562 8.625 14.0781 8.17969 14.0781 7.69531C14.0781 7.14844 14.1719 6.66406 14.3594 6.24219C14.5469 5.80469 14.7969 5.44531 15.1094 5.16406C15.4375 4.86719 15.8203 4.64844 16.2578 4.50781C16.6953 4.35156 17.1641 4.27344 17.6641 4.27344V4.17969C17.5703 4.07031 17.3828 3.89844 17.1016 3.66406C16.8203 3.41406 16.4297 3.17188 15.9297 2.9375C15.4297 2.6875 14.8125 2.47656 14.0781 2.30469C13.3438 2.11719 12.4766 2.02344 11.4766 2.02344ZM24.3672 12.4766V11.4688H28.3516V6.28906L30.3672 6.07812L33.6719 5.21094L34.1172 5.89062V11.4688H39.25V12.4766L34.1172 12.6875V29.1875C34.1172 30.1406 34.2266 30.9375 34.4453 31.5781C34.6797 32.2031 34.9766 32.6328 35.3359 32.8672C35.7109 33.1016 36.0078 33.25 36.2266 33.3125C36.4609 33.375 36.7031 33.4062 36.9531 33.4062C37.4375 33.4062 37.8984 33.3047 38.3359 33.1016C38.7891 32.8828 39.1953 32.5703 39.5547 32.1641C39.9297 31.7578 40.2344 31.3906 40.4688 31.0625C40.7031 30.7188 40.9688 30.3047 41.2656 29.8203L42.2734 30.4297C41.4453 31.8047 40.7266 32.8047 40.1172 33.4297C38.6328 34.9453 36.9219 35.7031 34.9844 35.7031C34.25 35.7031 33.5938 35.6484 33.0156 35.5391C32.4531 35.4453 31.8672 35.2344 31.2578 34.9062C30.6484 34.5781 30.1406 34.1406 29.7344 33.5938C29.3281 33.0312 28.9922 32.2656 28.7266 31.2969C28.4766 30.3125 28.3516 29.1641 28.3516 27.8516V12.6875L24.3672 12.4766ZM43.7969 23.375C43.7969 21.0156 44.25 18.875 45.1562 16.9531C46.0781 15.0312 47.3594 13.5234 49 12.4297C50.6562 11.3203 52.5234 10.7656 54.6016 10.7656C56.3203 10.7656 57.8672 11.125 59.2422 11.8438C60.6328 12.5469 61.7422 13.4922 62.5703 14.6797C63.4141 15.8672 64.0547 17.1953 64.4922 18.6641C64.9453 20.1172 65.1719 21.6406 65.1719 23.2344C65.1719 25.5312 64.7344 27.625 63.8594 29.5156C62.9844 31.4062 61.7266 32.9141 60.0859 34.0391C58.4609 35.1484 56.6172 35.7031 54.5547 35.7031C52.7266 35.7031 51.1094 35.3828 49.7031 34.7422C48.3125 34.0859 47.1875 33.1875 46.3281 32.0469C45.4844 30.8906 44.8516 29.5859 44.4297 28.1328C44.0078 26.6797 43.7969 25.0938 43.7969 23.375ZM49.7969 23.0938C49.7969 24.8281 49.8828 26.3828 50.0547 27.7578C50.2266 29.1172 50.4922 30.3281 50.8516 31.3906C51.2109 32.4375 51.6953 33.2422 52.3047 33.8047C52.9141 34.3672 53.6328 34.6484 54.4609 34.6484C57.6016 34.6484 59.1719 30.8906 59.1719 23.375C59.1719 21.4844 59.0938 19.8594 58.9375 18.5C58.7969 17.1406 58.5469 15.9453 58.1875 14.9141C57.8438 13.8672 57.3594 13.0938 56.7344 12.5938C56.1094 12.0781 55.3516 11.8203 54.4609 11.8203C53.6328 11.8203 52.9141 12.1016 52.3047 12.6641C51.6953 13.2266 51.2109 14.0234 50.8516 15.0547C50.4922 16.0859 50.2266 17.2656 50.0547 18.5938C49.8828 19.9219 49.7969 21.4219 49.7969 23.0938ZM68.0078 3.40625V2.44531L72.9062 1.92969L76.2109 1.0625L76.6328 1.74219V33.8047L79.0469 34.0391V35H68.4766V34.0391L70.8906 33.8047V3.40625H68.0078ZM81.0156 3.40625V2.44531L85.9141 1.92969L89.2188 1.0625L89.6406 1.74219V14.7266H89.7344C90.625 13.2266 91.5703 12.1953 92.5703 11.6328C93.5859 11.0547 94.8047 10.7656 96.2266 10.7656C96.6484 10.7656 97.0703 10.8047 97.4922 10.8828C97.9141 10.9609 98.3906 11.1172 98.9219 11.3516C99.4531 11.5703 99.9453 11.8594 100.398 12.2188C100.867 12.5781 101.328 13.0781 101.781 13.7188C102.234 14.3594 102.617 15.0938 102.93 15.9219C103.258 16.75 103.516 17.7812 103.703 19.0156C103.906 20.2344 104.008 21.5781 104.008 23.0469C104.008 24.7969 103.82 26.4219 103.445 27.9219C103.07 29.4062 102.508 30.7422 101.758 31.9297C101.023 33.1016 100.047 34.0234 98.8281 34.6953C97.625 35.3672 96.2422 35.7031 94.6797 35.7031C93.8047 35.7031 92.9062 35.5 91.9844 35.0938C91.0625 34.7031 90.2812 34.0625 89.6406 33.1719L84.8594 35.2344H83.8984V3.40625H81.0156ZM89.6406 29.9609C89.6406 31.0703 90.0234 32.0703 90.7891 32.9609C91.5547 33.8516 92.4375 34.2969 93.4375 34.2969C94.0469 34.2969 94.5938 34.1562 95.0781 33.875C95.5625 33.5938 95.9609 33.2422 96.2734 32.8203C96.6016 32.3828 96.875 31.8203 97.0938 31.1328C97.3125 30.4453 97.4766 29.8047 97.5859 29.2109C97.7109 28.6016 97.8047 27.8672 97.8672 27.0078C97.9297 26.1328 97.9688 25.4141 97.9844 24.8516C98 24.2891 98.0078 23.6094 98.0078 22.8125C98.0078 20.2031 97.8281 18.1328 97.4688 16.6016C97.125 15.0547 96.6719 14.0078 96.1094 13.4609C95.5469 12.9141 94.8203 12.6406 93.9297 12.6406C92.7891 12.6406 91.7891 13.2734 90.9297 14.5391C90.0703 15.7891 89.6406 17.1797 89.6406 18.7109V29.9609Z"
          fill="#000"/>
</svg>
