<svg width="164" height="29" viewBox="0 0 164 29" fill="none" xmlns="http://www.w3.org/2000/svg">
<path d="M9.952 19.544H9.904C9.52 19.544 9.12 19.848 8.704 20.456L8.224 21.176C7.712 21.848 7.28 22.312 6.928 22.568C6.576 22.824 6.32 22.968 6.16 23H5.104C4.816 23 4.48 22.888 4.096 22.664C3.744 22.408 3.424 21.976 3.136 21.368L0.928 17.096C0.608 16.552 0.384 15.88 0.256 15.08C0.128 14.28 0.0640001 13.304 0.0640001 12.152V4.52C0.0640001 2.952 0.592 2.168 1.648 2.168C2.736 2.168 3.28 2.984 3.28 4.616V14.504C3.28 15.016 3.312 15.48 3.376 15.896C3.472 16.312 3.6 16.632 3.76 16.856L5.008 19.064C5.2 19.48 5.408 19.688 5.632 19.688C5.792 19.688 6.048 19.464 6.4 19.016L7.648 16.952C8.064 16.152 8.272 15.224 8.272 14.168V4.52C8.272 2.952 8.832 2.168 9.952 2.168C11.04 2.168 11.584 2.952 11.584 4.52V14.168C11.552 14.328 11.536 14.536 11.536 14.792C11.536 15.624 11.776 16.344 12.256 16.952L13.408 19.016C13.6 19.432 13.824 19.64 14.08 19.64C14.336 19.64 14.608 19.448 14.896 19.064L16.048 16.856C16.176 16.44 16.288 16.04 16.384 15.656C16.512 15.272 16.576 14.888 16.576 14.504V4.616C16.576 2.984 17.104 2.168 18.16 2.168C19.248 2.168 19.792 2.952 19.792 4.52V12.152C19.792 13.304 19.712 14.28 19.552 15.08C19.392 15.88 19.168 16.552 18.88 17.096L16.672 21.368C15.904 22.456 15.232 23 14.656 23H13.6C13.376 23.032 13.104 22.888 12.784 22.568C12.496 22.248 12.112 21.784 11.632 21.176L11.104 20.456C10.624 19.848 10.24 19.544 9.952 19.544ZM30.4525 7.112H26.3725C25.1565 7.112 24.5485 6.824 24.5485 6.248C24.5485 5.704 25.1245 5.432 26.2765 5.432H31.9885C34.3565 5.432 35.5405 6.648 35.5405 9.08V19.544C35.5405 21.848 34.3565 23 31.9885 23H27.9565C25.3645 23 24.0685 22.056 24.0685 20.168V13.928C24.0685 13.128 24.3725 12.488 24.9805 12.008C25.5885 11.496 26.5325 11.24 27.8125 11.24H30.3565C31.5085 11.24 32.0845 10.664 32.0845 9.512V9.032C32.0845 7.752 31.5405 7.112 30.4525 7.112ZM27.4765 15.224V18.872C27.4765 20.536 28.2605 21.368 29.8285 21.368C31.3325 21.368 32.0845 20.536 32.0845 18.872V15.224C32.0845 13.656 31.3325 12.872 29.8285 12.872C28.2605 12.872 27.4765 13.656 27.4765 15.224ZM45.9078 23.048C45.2678 23.048 44.5318 22.552 43.6998 21.56L41.4918 18.92C40.5638 17.928 40.0998 16.792 40.0998 15.512V10.04C40.0998 8.632 40.6758 7.928 41.8278 7.928C43.0438 7.928 43.6518 8.712 43.6518 10.28V15.992C43.5878 16.472 43.6198 16.888 43.7478 17.24C43.9078 17.592 44.1318 17.944 44.4198 18.296L45.8598 20.12L47.3478 18.296C47.8598 17.592 48.1158 16.824 48.1158 15.992V10.28C48.1158 8.712 48.7078 7.928 49.8918 7.928C51.0438 7.928 51.6198 8.632 51.6198 10.04V15.512C51.6198 16.152 51.4918 16.744 51.2358 17.288C50.9798 17.832 50.6278 18.376 50.1797 18.92L48.0678 21.56C47.0758 22.552 46.3558 23.048 45.9078 23.048ZM60.931 21.368H65.779C66.995 21.368 67.603 21.656 67.603 22.232C67.603 22.744 67.027 23 65.875 23H59.875C57.379 23 56.131 21.832 56.131 19.496V8.888C56.131 6.584 57.411 5.432 59.971 5.432H63.955C65.139 5.432 66.035 5.688 66.643 6.2C67.283 6.68 67.603 7.384 67.603 8.312V13.832C67.603 15.016 67.283 15.864 66.643 16.376C66.035 16.888 65.139 17.144 63.955 17.144H61.027C60.067 17.144 59.587 17.864 59.587 19.304C59.587 20.68 60.035 21.368 60.931 21.368ZM59.587 9.464V13.064C59.587 14.664 60.371 15.464 61.939 15.464C63.411 15.464 64.147 14.664 64.147 13.064V9.464C64.147 7.864 63.411 7.064 61.939 7.064C60.371 7.064 59.587 7.864 59.587 9.464ZM79.2183 16.184H76.0983C73.4423 16.184 72.1143 15.272 72.1143 13.448V11.432C72.1143 9.16 73.3943 8.024 75.9543 8.024H81.3303C82.5463 8.024 83.1543 8.28 83.1543 8.792C83.1543 9.4 82.5143 9.704 81.2343 9.704H76.9622C76.0343 9.704 75.5703 10.232 75.5703 11.288V13.4C75.5703 14.232 76.0343 14.648 76.9622 14.648H79.6983C82.1303 14.648 83.4423 15.64 83.6343 17.624V19.544C83.6343 21.848 82.3703 23 79.8423 23H73.8903C72.7063 23 72.1143 22.696 72.1143 22.088C72.1143 21.512 72.7543 21.224 74.0343 21.224H79.2183C80.1463 21.224 80.6103 20.712 80.6103 19.688V17.528C80.6103 16.632 80.1463 16.184 79.2183 16.184ZM100.516 23.288C99.3004 23.288 98.6924 22.52 98.6924 20.984V4.232C98.6924 2.024 99.8764 0.92 102.244 0.92H106.324C107.476 0.92 108.052 1.208 108.052 1.784C108.052 2.328 107.444 2.6 106.228 2.6H104.164C102.852 2.6 102.196 3.256 102.196 4.568V7.784C102.196 9.416 102.868 10.232 104.212 10.232H106.228C107.444 10.232 108.052 10.488 108.052 11C108.052 11.608 107.444 11.912 106.228 11.912H104.932C103.108 11.912 102.196 12.744 102.196 14.408V20.744C102.196 22.44 101.636 23.288 100.516 23.288ZM113.13 23.24C111.978 23.24 111.402 22.472 111.402 20.936V3.704C111.402 2.232 111.978 1.496 113.13 1.496C114.25 1.496 114.81 2.232 114.81 3.704V20.936C114.81 22.472 114.25 23.24 113.13 23.24ZM127.944 18.536V10.424C127.944 8.76 128.504 7.928 129.624 7.928C130.808 7.928 131.4 8.664 131.4 10.136V19.64C131.4 20.856 131.08 21.72 130.44 22.232C129.832 22.744 128.936 23 127.752 23H123.624C122.344 23 121.4 22.76 120.792 22.28C120.184 21.768 119.88 20.92 119.88 19.736V10.184C119.88 8.68 120.488 7.928 121.704 7.928C122.824 7.928 123.384 8.76 123.384 10.424V18.584C123.384 20.408 124.04 21.32 125.352 21.32H126.024C127.304 21.32 127.944 20.392 127.944 18.536ZM143.975 12.44C143.975 10.648 143.303 9.752 141.959 9.752H141.335C140.055 9.752 139.415 10.712 139.415 12.632V20.648C139.415 22.344 138.855 23.192 137.735 23.192C136.519 23.192 135.911 22.456 135.911 20.984V11.384C135.911 10.36 136.215 9.544 136.823 8.936C137.463 8.328 138.423 8.024 139.703 8.024H143.783C144.967 8.024 145.863 8.328 146.471 8.936C147.111 9.512 147.431 10.312 147.431 11.336V20.888C147.431 22.424 146.839 23.192 145.655 23.192C144.535 23.192 143.975 22.344 143.975 20.648V12.44ZM158.326 27.08C159.478 27.08 160.054 26.632 160.054 25.736V24.488C160.054 23.496 159.462 23 158.278 23H155.782C154.502 23 153.558 22.76 152.95 22.28C152.342 21.768 152.038 20.936 152.038 19.784V11.288C152.038 10.264 152.342 9.464 152.95 8.888C153.558 8.312 154.502 8.024 155.782 8.024H159.862C161.046 8.024 161.942 8.312 162.55 8.888C163.19 9.464 163.51 10.264 163.51 11.288V25.448C163.51 26.6 163.19 27.432 162.55 27.944C161.942 28.456 161.062 28.712 159.91 28.712H153.526C152.534 28.712 152.038 28.456 152.038 27.944C152.038 27.368 152.55 27.08 153.574 27.08H158.326ZM160.054 18.392V12.584C160.054 10.664 159.382 9.704 158.038 9.704H157.414C156.166 9.704 155.542 10.728 155.542 12.776V18.44C155.542 20.392 156.182 21.368 157.462 21.368H158.182C159.43 21.368 160.054 20.376 160.054 18.392Z" fill="#000"/>
</svg>
