<svg width="158" height="37" viewBox="0 0 158 37" fill="none" xmlns="http://www.w3.org/2000/svg">
    <path d="M26.1172 36H0.101562L14.4453 9.11719H0.101562V2.39062H26.1172L11.8203 29.2734H26.1172V36ZM39.125 29.8594C39.375 29.9375 39.625 29.9922 39.875 30.0234C40.125 30.0391 40.375 30.0469 40.625 30.0469C41.25 30.0469 41.8516 29.9609 42.4297 29.7891C43.0078 29.6172 43.5469 29.375 44.0469 29.0625C44.5625 28.7344 45.0156 28.3438 45.4062 27.8906C45.8125 27.4219 46.1406 26.9062 46.3906 26.3438L51.0781 31.0547C50.4844 31.8984 49.7969 32.6562 49.0156 33.3281C48.25 34 47.4141 34.5703 46.5078 35.0391C45.6172 35.5078 44.6719 35.8594 43.6719 36.0938C42.6875 36.3438 41.6719 36.4688 40.625 36.4688C38.8594 36.4688 37.1953 36.1406 35.6328 35.4844C34.0859 34.8281 32.7266 33.9141 31.5547 32.7422C30.3984 31.5703 29.4844 30.1797 28.8125 28.5703C28.1406 26.9453 27.8047 25.1641 27.8047 23.2266C27.8047 21.2422 28.1406 19.4297 28.8125 17.7891C29.4844 16.1484 30.3984 14.75 31.5547 13.5938C32.7266 12.4375 34.0859 11.5391 35.6328 10.8984C37.1953 10.2578 38.8594 9.9375 40.625 9.9375C41.6719 9.9375 42.6953 10.0625 43.6953 10.3125C44.6953 10.5625 45.6406 10.9219 46.5312 11.3906C47.4375 11.8594 48.2812 12.4375 49.0625 13.125C49.8438 13.7969 50.5312 14.5547 51.125 15.3984L39.125 29.8594ZM42.4062 16.6641C42.1094 16.5547 41.8125 16.4844 41.5156 16.4531C41.2344 16.4219 40.9375 16.4062 40.625 16.4062C39.75 16.4062 38.9219 16.5703 38.1406 16.8984C37.375 17.2109 36.7031 17.6641 36.125 18.2578C35.5625 18.8516 35.1172 19.5703 34.7891 20.4141C34.4609 21.2422 34.2969 22.1797 34.2969 23.2266C34.2969 23.4609 34.3047 23.7266 34.3203 24.0234C34.3516 24.3203 34.3906 24.625 34.4375 24.9375C34.5 25.2344 34.5703 25.5234 34.6484 25.8047C34.7266 26.0859 34.8281 26.3359 34.9531 26.5547L42.4062 16.6641ZM60.8047 36H54.3594V0.914062H60.8047V36ZM75.6875 29.8594C75.9375 29.9375 76.1875 29.9922 76.4375 30.0234C76.6875 30.0391 76.9375 30.0469 77.1875 30.0469C77.8125 30.0469 78.4141 29.9609 78.9922 29.7891C79.5703 29.6172 80.1094 29.375 80.6094 29.0625C81.125 28.7344 81.5781 28.3438 81.9688 27.8906C82.375 27.4219 82.7031 26.9062 82.9531 26.3438L87.6406 31.0547C87.0469 31.8984 86.3594 32.6562 85.5781 33.3281C84.8125 34 83.9766 34.5703 83.0703 35.0391C82.1797 35.5078 81.2344 35.8594 80.2344 36.0938C79.25 36.3438 78.2344 36.4688 77.1875 36.4688C75.4219 36.4688 73.7578 36.1406 72.1953 35.4844C70.6484 34.8281 69.2891 33.9141 68.1172 32.7422C66.9609 31.5703 66.0469 30.1797 65.375 28.5703C64.7031 26.9453 64.3672 25.1641 64.3672 23.2266C64.3672 21.2422 64.7031 19.4297 65.375 17.7891C66.0469 16.1484 66.9609 14.75 68.1172 13.5938C69.2891 12.4375 70.6484 11.5391 72.1953 10.8984C73.7578 10.2578 75.4219 9.9375 77.1875 9.9375C78.2344 9.9375 79.2578 10.0625 80.2578 10.3125C81.2578 10.5625 82.2031 10.9219 83.0938 11.3906C84 11.8594 84.8438 12.4375 85.625 13.125C86.4062 13.7969 87.0938 14.5547 87.6875 15.3984L75.6875 29.8594ZM78.9688 16.6641C78.6719 16.5547 78.375 16.4844 78.0781 16.4531C77.7969 16.4219 77.5 16.4062 77.1875 16.4062C76.3125 16.4062 75.4844 16.5703 74.7031 16.8984C73.9375 17.2109 73.2656 17.6641 72.6875 18.2578C72.125 18.8516 71.6797 19.5703 71.3516 20.4141C71.0234 21.2422 70.8594 22.1797 70.8594 23.2266C70.8594 23.4609 70.8672 23.7266 70.8828 24.0234C70.9141 24.3203 70.9531 24.625 71 24.9375C71.0625 25.2344 71.1328 25.5234 71.2109 25.8047C71.2891 26.0859 71.3906 26.3359 71.5156 26.5547L78.9688 16.6641ZM97.3203 36H90.9219V10.8984H92.4688L94.5781 13.3359C95.6094 12.3984 96.7734 11.6797 98.0703 11.1797C99.3828 10.6641 100.75 10.4062 102.172 10.4062C103.703 10.4062 105.148 10.7031 106.508 11.2969C107.867 11.875 109.055 12.6797 110.07 13.7109C111.086 14.7266 111.883 15.9219 112.461 17.2969C113.055 18.6562 113.352 20.1094 113.352 21.6562V36H106.953V21.6562C106.953 21 106.828 20.3828 106.578 19.8047C106.328 19.2109 105.984 18.6953 105.547 18.2578C105.109 17.8203 104.602 17.4766 104.023 17.2266C103.445 16.9766 102.828 16.8516 102.172 16.8516C101.5 16.8516 100.867 16.9766 100.273 17.2266C99.6797 17.4766 99.1641 17.8203 98.7266 18.2578C98.2891 18.6953 97.9453 19.2109 97.6953 19.8047C97.4453 20.3828 97.3203 21 97.3203 21.6562V36ZM145.109 22.5703C145.109 24.4297 144.758 26.1797 144.055 27.8203C143.352 29.4453 142.391 30.8672 141.172 32.0859C139.953 33.2891 138.523 34.2422 136.883 34.9453C135.258 35.6484 133.516 36 131.656 36C129.797 36 128.047 35.6484 126.406 34.9453C124.781 34.2422 123.359 33.2891 122.141 32.0859C120.938 30.8672 119.984 29.4453 119.281 27.8203C118.578 26.1797 118.227 24.4297 118.227 22.5703V2.39062H124.93V22.5703C124.93 23.4922 125.102 24.3594 125.445 25.1719C125.805 25.9844 126.289 26.6953 126.898 27.3047C127.508 27.9141 128.219 28.3984 129.031 28.7578C129.859 29.1016 130.734 29.2734 131.656 29.2734C132.578 29.2734 133.445 29.1016 134.258 28.7578C135.086 28.3984 135.805 27.9141 136.414 27.3047C137.023 26.6953 137.5 25.9844 137.844 25.1719C138.203 24.3594 138.383 23.4922 138.383 22.5703V2.39062H145.109V22.5703ZM157.672 36H150.945V2.39062H157.672V36Z"
          fill="#000"/>
</svg>
